<?xml version="1.0" encoding="utf-8"?>
<!-- Generator: Adobe Illustrator 25.3.1, SVG Export Plug-In . SVG Version: 6.00 Build 0)  -->
<svg version="1.1" id="Capa_1" xmlns="http://www.w3.org/2000/svg" xmlns:xlink="http://www.w3.org/1999/xlink" x="0px" y="0px"
	 viewBox="0 0 368 368" style="enable-background:new 0 0 368 368;" xml:space="preserve">
<style type="text/css">
	.st0{fill:#FFFFFF;}
</style>
<g>
	<g>
		<path class="st0" d="M312,0H56C25.1,0,0,25.1,0,56v256c0,30.9,25.1,56,56,56v-0.7c6.5,0.7,18.4,0.7,40,0.7h216
			c30.9,0,56-25.1,56-56V56C368,25.1,342.9,0,312,0z M352,312c0,22.1-17.9,40-40,40c0,0-254.2,0-256,0c-22.1,0-40-17.9-40-40V56
			c0-22.1,17.9-40,40-40h256c22.1,0,40,17.9,40,40V312z"/>
	</g>
</g>
<g>
	<g>
		<path class="st0" d="M184,64c-66.2,0-120,53.8-120,120s53.8,120,120,120s120-53.8,120-120S250.2,64,184,64z M184,288
			c-57.3,0-104-46.7-104-104S126.7,80,184,80s104,46.7,104,104S241.3,288,184,288z"/>
	</g>
</g>
<g>
	<g>
		<path class="st0" d="M183.6,111.6c-39.9,0-72.4,32.5-72.4,72.4s32.5,72.4,72.4,72.4S256,223.9,256,184S223.5,111.6,183.6,111.6z
			 M183.6,240.4c-31.1,0-56.4-25.3-56.4-56.4s25.3-56.4,56.4-56.4S240,152.9,240,184S214.7,240.4,183.6,240.4z"/>
	</g>
</g>
<g>
	<g>
		<circle class="st0" cx="304" cy="64" r="16"/>
	</g>
</g>
</svg>
